{"title":"Prowl-AC3-XviD-DVDRip 2010 TBS","uid":6287417,"size":1129214223,"categoryP":"video","categoryS":"movies","magnet":"?xt=urn:btih:69919fbc0ddbffb1c9362a2b38d638194a74d2af&amp;dn=Prowl-AC3-XviD-DVDRip+2010+TBS&amp;tr=udp%3A%2F%2Ftracker.openbittorrent.com%3A80&amp;tr=udp%3A%2F%2Fopen.demonii.com%3A1337&amp;tr=udp%3A%2F%2Ftracker.coppersurfer.tk%3A6969&amp;tr=udp%3A%2F%2Fexodus.desync.com%3A6969","seeders":0,"leechers":1,"uploader":"FatFreddy30","files":-1,"time":1301664986,"description":"Amber dreams of escaping her small town existence and persuades her friends to accompany her to find an apartment in the big city. When their transportation breaks down, she and her friends gratefully accept a ride in the back of a semi. But when the driver refuses to stop and they discover the cargo is hundreds of cartons of blood, they panic. Their panic turns to terror when the truck disgorges them into a dark, abandoned warehouse where blood-thirsty creatures learn to hunt human prey, which, the friends realize, is what they now are...\n &lt;a href=&quot;\nhttp://www.imdb.com/title/tt1559033/&quot; rel=&quot;nofollow&quot; target=&quot;_NEW&quot;&gt;\nhttp://www.imdb.com/title/tt1559033/&lt;/a&gt;\n\nSubtitles: Dutch, English.\n\n\nAmber droomt ervan het kleine stadje waar ze woont te verlaten, en haar vrienden helpen haar met het zoeken naar een appartement in de grote stad. Als hun auto het begeeft, krijgen ze een lift aangeboden, die ze dankbaar accepteren. Maar dan weigert de bestuurder te stoppen en ontdekken ze dat hij bloed transporteert. Hierdoor slaat de paniek snel toe. Dan stopt de vrachtwagen, en komen de vrienden erachter dat ze zich in een donker pakhuis bevinden. Hier worden ze opgejaagd door een groep wezens, die moeten leren jagen op mensen...\n &lt;a href=&quot;\nhttp://www.moviemeter.nl/film/64981&quot; rel=&quot;nofollow&quot; target=&quot;_NEW&quot;&gt;\nhttp://www.moviemeter.nl/film/64981&lt;/a&gt;\n\nOndertitels: Engels, Nederlands.\n\nGeneral\nComplete name                    : Prowl-AC3-XviD-DVDRip 2010.avi\nFormat                           : AVI\nFormat/Info                      : Audio Video Interleave\nFile size                        : 1.05 GiB\nDuration                         : 1h 24mn\nOverall bit rate                 : 1 784 Kbps\nWriting application              : VirtualDubMod 1.5.4.1 (build 2178/release)\nWriting library                  : VirtualDubMod build 2178/release\n\nVideo\nID                               : 0\nFormat                           : MPEG-4 Visual\nFormat profile                   : Simple@L3\nFormat settings, BVOP            : No\nFormat settings, QPel            : No\nFormat settings, GMC             : No warppoints\nFormat settings, Matrix          : Default (H.263)\nCodec ID                         : XVID\nCodec ID/Hint                    : XviD\nDuration                         : 1h 24mn\nBit rate                         : 1 326 Kbps\nWidth                            : 720 pixels\nHeight                           : 304 pixels\nDisplay aspect ratio             : 2.35:1\nFrame rate                       : 23.976 fps\nResolution                       : 8 bits\nColorimetry                      : 4:2:0\nScan type                        : Progressive\nBits/(Pixel*Frame)               : 0.253\nStream size                      : 800 MiB (74%)\nWriting library                  : XviD 1.1.2 (UTC 2006-11-01)\n\nAudio\nID                               : 1\nFormat                           : AC-3\nFormat/Info                      : Audio Coding 3\nCodec ID                         : 2000\nDuration                         : 1h 24mn\nBit rate mode                    : Constant\nBit rate                         : 448 Kbps\nChannel(s)                       : 6 channels\nChannel positions                : Front: L C R, Surround: L R, LFE\nSampling rate                    : 48.0 KHz\nStream size                      : 270 MiB (25%)\nAlignment                        : Split accross interleaves\nInterleave, duration             : 42 ms (1.00 video frame)\nInterleave, preload duration     : 500 ms\n\nThanks to Filmofiel.\n\nEnjoy.\n\nTBS.","torrent":{"xt":"urn:btih:69919fbc0ddbffb1c9362a2b38d638194a74d2af","amp;dn":"Prowl-AC3-XviD-DVDRip+2010+TBS","amp;tr":["udp%3A%2F%2Ftracker.openbittorrent.com%3A80","udp%3A%2F%2Fopen.demonii.com%3A1337","udp%3A%2F%2Ftracker.coppersurfer.tk%3A6969","udp%3A%2F%2Fexodus.desync.com%3A6969"],"infoHash":"69919fbc0ddbffb1c9362a2b38d638194a74d2af","infoHashBuffer":{"type":"Buffer","data":[105,145,159,188,13,219,255,177,201,54,42,43,56,214,56,25,74,116,210,175]},"announce":[],"urlList":[]}}